<svg width="20" height="20" viewBox="0 0 20 20" fill="none" xmlns="http://www.w3.org/2000/svg">
<path d="M5.94829 9.46808C6.65135 9.90354 7.49435 9.9808 8.09079 9.65772C8.45398 9.46457 8.90047 9.03964 8.99044 8.109C9.10706 6.86933 8.32736 5.69638 6.74131 4.71658C5.91497 4.20385 4.8887 4.20385 4.06235 4.71658C2.4763 5.69638 1.6966 6.86933 1.81322 8.109C1.90319 9.03964 2.34968 9.46457 2.70954 9.65772C2.95945 9.79117 3.246 9.85438 3.54922 9.85438C3.97905 9.85438 4.4422 9.72444 4.85538 9.46808C5.19191 9.25737 5.61175 9.25737 5.94829 9.46808Z" fill="#0D92F4"/>
<path d="M5.40178 3.60313C6.20813 3.60313 6.86454 2.79541 6.86454 1.80157C6.86454 0.80772 6.20813 0 5.40178 0C4.59542 0 3.93901 0.80772 3.93901 1.80157C3.93901 2.79541 4.59542 3.60313 5.40178 3.60313Z" fill="#0D92F4"/>
<path d="M3.03917 3.85263C3.0525 3.75781 3.0625 3.65948 3.0625 3.56466C3.0625 3.2205 2.9692 2.86932 2.79927 2.55326C2.57602 2.1494 2.23948 1.84036 1.85297 1.68935C1.44313 1.52429 1.02662 1.55239 0.676756 1.76661C0.326892 1.97732 0.093649 2.34606 0.0236762 2.8026C-0.0462967 3.23104 0.0403364 3.69109 0.263583 4.09846C0.48683 4.50232 0.820034 4.81136 1.20655 4.96588C1.38315 5.03612 1.56308 5.07124 1.73634 5.07124C1.96626 5.07124 2.18617 5.00802 2.38609 4.88862C2.73596 4.6744 2.96587 4.30566 3.03917 3.85263Z" fill="#0D92F4"/>
<path d="M8.4172 4.88862C8.61712 5.00802 8.83703 5.07124 9.06694 5.07124C9.24021 5.07124 9.42014 5.03612 9.59674 4.96588C9.98325 4.81136 10.3165 4.50232 10.5397 4.09846C10.763 3.69109 10.8496 3.23104 10.7796 2.8026C10.7096 2.34606 10.4764 1.97732 10.1265 1.76661C9.77667 1.55239 9.36016 1.52429 8.95032 1.68935C8.56381 1.84036 8.22727 2.1494 8.00402 2.55326C7.78078 2.96063 7.69747 3.42068 7.76412 3.85263C7.83742 4.30566 8.06733 4.6744 8.4172 4.88862Z" fill="#0D92F4"/>
<path d="M19.8959 8.10925L18.5397 6.68344L17.5401 5.62639L16.194 4.21112C16.064 4.07416 15.8541 4.07416 15.7242 4.21112C15.5942 4.34808 15.5942 4.56933 15.7242 4.70629L16.8437 5.88626L15.6742 7.1154L14.5546 5.93543C14.4247 5.79846 14.2147 5.79846 14.0848 5.93543L12.8819 7.20671C12.8819 7.20671 12.8786 7.20671 12.8753 7.21022C12.8719 7.21373 12.8753 7.21373 12.8719 7.21724L11.6757 8.47448L9.27666 11.003L8.07713 12.2672L7.36407 13.0188C6.96423 13.4402 6.78763 14.0407 6.88759 14.6272L7.29743 16.9907L5.00832 19.4033C4.87837 19.5402 4.87837 19.7615 5.00832 19.8984C5.07496 19.9687 5.15826 20.0003 5.24489 20.0003C5.33153 20.0003 5.41483 19.9652 5.48147 19.8984L7.77058 17.4858L10.013 17.9178C10.113 17.9353 10.2196 17.9459 10.3196 17.9459C10.7728 17.9459 11.2159 17.7562 11.5391 17.4121L12.2355 16.6781C12.2355 16.6781 12.2455 16.6676 12.2522 16.6641C12.2555 16.657 12.2622 16.6535 12.2655 16.6465L18.2632 10.3287C18.3265 10.262 18.3598 10.1742 18.3598 10.0794C18.3598 9.98456 18.3265 9.89677 18.2632 9.83355L17.1403 8.65007L18.3065 7.41742L19.4294 8.6009C19.496 8.67114 19.5793 8.70626 19.666 8.70626C19.7526 8.70626 19.8359 8.67114 19.9025 8.6009C20.0325 8.46394 20.0325 8.2427 19.9025 8.10573L19.8959 8.10925ZM17.5501 10.0829L12.0089 15.9231L8.78019 12.5201L9.50991 11.7545L10.2496 12.5341C10.3163 12.6044 10.3996 12.636 10.4862 12.636C10.5728 12.636 10.6561 12.6009 10.7228 12.5341C10.8527 12.3972 10.8527 12.1759 10.7228 12.039L9.97972 11.2558L10.7094 10.4868L11.4525 11.2699C11.5191 11.3401 11.6024 11.3717 11.6891 11.3717C11.7757 11.3717 11.859 11.3366 11.9256 11.2699C12.0556 11.1329 12.0556 10.9117 11.9256 10.7747L11.1859 9.9951L11.9123 9.22601L12.6554 10.0091C12.722 10.0794 12.8053 10.111 12.8919 10.111C12.9786 10.111 13.0619 10.0759 13.1285 10.0091C13.2585 9.87218 13.2585 9.65094 13.1285 9.51398L12.3888 8.73435L13.1185 7.96526L13.8582 8.74489C13.9249 8.81512 14.0082 8.84673 14.0948 8.84673C14.1814 8.84673 14.2647 8.81161 14.3314 8.74489C14.4613 8.60793 14.4613 8.38668 14.3314 8.24972L13.5917 7.47009L14.3314 6.68696L15.4276 7.84235C15.4276 7.84235 15.4409 7.85991 15.4476 7.86693L16.4339 8.90643C16.4339 8.90643 16.4439 8.91697 16.4505 8.92048L17.5601 10.0899L17.5501 10.0829Z" fill="#0D92F4"/>
</svg>
